<?xml version="1.0" encoding="utf-8"?>
<!-- Generator: Adobe Illustrator 28.0.0, SVG Export Plug-In . SVG Version: 6.00 Build 0)  -->
<svg version="1.1" id="Icons" xmlns="http://www.w3.org/2000/svg" xmlns:xlink="http://www.w3.org/1999/xlink" x="0px" y="0px"
	 viewBox="0 0 512 512" style="enable-background:new 0 0 512 512;" xml:space="preserve">
<style type="text/css">
	.st0{fill:#666666;}
</style>
<path class="st0" d="M426.7,512c18.9,0,34.1-15.3,34.1-34.1V138.6c0-9-3.6-17.7-10-24.1L346.3,10c-6.4-6.4-15.1-10-24.1-10H85.3
	C66.5,0,51.2,15.3,51.2,34.1v443.7c0,18.9,15.3,34.1,34.1,34.1H426.7z M431.7,119.5h-73.3c-9.4,0-17.1-7.6-17.1-17.1V29.1
	L431.7,119.5z M68.3,477.9V34.1c0-9.4,7.6-17.1,17.1-17.1h236.9c0.7,0,1.4,0.1,2.1,0.2v85.1c0,18.9,15.3,34.1,34.1,34.1h85.1
	c0.1,0.7,0.2,1.4,0.2,2.1v339.3c0,9.4-7.6,17.1-17.1,17.1H85.3C75.9,494.9,68.3,487.3,68.3,477.9z"/>
<path class="st0" d="M128,221.9h256c4.7,0,8.5-3.8,8.5-8.5s-3.8-8.5-8.5-8.5H128c-4.7,0-8.5,3.8-8.5,8.5S123.3,221.9,128,221.9z"/>
<path class="st0" d="M128,290.1h256c4.7,0,8.5-3.8,8.5-8.5s-3.8-8.5-8.5-8.5H128c-4.7,0-8.5,3.8-8.5,8.5S123.3,290.1,128,290.1z"/>
<path class="st0" d="M128,358.4h256c4.7,0,8.5-3.8,8.5-8.5c0-4.7-3.8-8.5-8.5-8.5H128c-4.7,0-8.5,3.8-8.5,8.5
	C119.5,354.6,123.3,358.4,128,358.4z"/>
<path class="st0" d="M128,426.7h170.7c4.7,0,8.5-3.8,8.5-8.5s-3.8-8.5-8.5-8.5H128c-4.7,0-8.5,3.8-8.5,8.5S123.3,426.7,128,426.7z"
	/>
</svg>
