<?xml version="1.0" encoding="utf-8"?>
<!-- Generator: Adobe Illustrator 28.0.0, SVG Export Plug-In . SVG Version: 6.00 Build 0)  -->
<svg version="1.1" id="Layer_1" xmlns="http://www.w3.org/2000/svg" xmlns:xlink="http://www.w3.org/1999/xlink" x="0px" y="0px"
	 viewBox="0 0 512 512" style="enable-background:new 0 0 512 512;" xml:space="preserve">
<style type="text/css">
	.st0{fill:#666666;}
</style>
<path class="st0" d="M498.1,222.6l-57.3-57.3V15c0-8.3-6.7-15-15-15h-64.3c-8.3,0-15,6.7-15,15v56l-57.2-57.2
	C280.5,4.9,268.6,0,256,0c-12.6,0-24.5,4.9-33.4,13.8L13.8,222.6c-18.4,18.4-18.4,48.4,0,66.8c8.9,8.9,20.8,13.8,33.4,13.8
	c2.6,0,5.3-0.2,7.8-0.7v154.2c0,30.4,24.7,55.2,55.2,55.2h97.6c8.3,0,15-6.7,15-15V383.5h66.4V497c0,8.3,6.7,15,15,15h97.6
	c30.4,0,55.2-24.7,55.2-55.2V302.6c2.6,0.4,5.2,0.7,7.8,0.7h0c12.6,0,24.5-4.9,33.4-13.8c8.9-8.9,13.8-20.8,13.8-33.4
	C512,243.4,507.1,231.5,498.1,222.6L498.1,222.6z M376.6,30h34.3v105.3L376.6,101V30z M401.8,482h-82.6V368.5c0-8.3-6.7-15-15-15
	h-96.4c-8.3,0-15,6.7-15,15V482h-82.6c-13.9,0-25.2-11.3-25.2-25.2V285L256,114.1L426.9,285v171.8C426.9,470.7,415.6,482,401.8,482
	L401.8,482z M476.9,268.2c-3.3,3.3-7.6,5.1-12.2,5.1c-4.6,0-8.9-1.8-12.2-5.1c0,0,0,0,0,0L266.6,82.3c-5.9-5.9-15.4-5.9-21.2,0
	L59.5,268.2c0,0,0,0,0,0c-3.3,3.3-7.6,5.1-12.2,5.1s-8.9-1.8-12.2-5.1c-6.7-6.7-6.7-17.7,0-24.4L243.8,35.1
	c3.3-3.3,7.6-5.1,12.2-5.1c4.6,0,8.9,1.8,12.2,5.1l82.8,82.8l126,126C483.7,250.5,483.7,261.5,476.9,268.2z"/>
</svg>
