<?xml version="1.0" encoding="utf-8"?>
<!-- Generator: Adobe Illustrator 28.0.0, SVG Export Plug-In . SVG Version: 6.00 Build 0)  -->
<svg version="1.1" id="Layer_1" xmlns="http://www.w3.org/2000/svg" xmlns:xlink="http://www.w3.org/1999/xlink" x="0px" y="0px"
	 viewBox="0 0 512 512" style="enable-background:new 0 0 512 512;" xml:space="preserve">
<style type="text/css">
	.st0{fill:#666666;}
</style>
<path class="st0" d="M341.3,362.7v-21.3h-64v-64h64V320H384v42.7h-21.3v42.7H320V448h-42.7v-64H320v-21.3H341.3z M448,448h-85.3
	v-42.7h42.7v-42.7H448V448z M64,64h170.7v170.7H64V64z M277.3,64H448v170.7H277.3V64z M64,277.3h170.7V448H64V277.3z M384,277.3h64
	V320h-64V277.3z M128,128v42.7h42.7V128H128z M128,341.3V384h42.7v-42.7H128z M341.3,128v42.7H384V128H341.3z"/>
</svg>
